<svg xmlns="http://www.w3.org/2000/svg" xmlns:xlink="http://www.w3.org/1999/xlink" fill="none" height="136" viewBox="0 0 210 136" width="210"><clipPath id="a" fill="#000000fff"><path d="m41 43h127v50h-127z" fill="#000000fff"/></clipPath><rect fill="#fafafa" height="135" rx="24.5" width="209" x=".5" y=".5"/><rect height="135" rx="24.5" stroke="#d6dce5" width="209" x=".5" y=".5" fill="#000000fff"/><g clip-path="url(#a)" fill="#000000"><path d="m48.2546 52.5536h-7.2546v29.2857h7.2546z" fill="#000000fff"/><path d="m71.0931 54.25c0-6.25-5.1051-11.25-11.2849-11.25h-18.8082v6.25h17.823c2.866 0 5.1946 2.2321 5.1946 4.9107 0 1.3393-.4478 2.6786-1.433 3.6607-.9852.9822-2.239 1.5179-3.5825 1.5179h-6.9859c-.2687 0-.4478.1786-.4478.4464v5.5357c0 .0893 0 .1786.0896.2679l11.8223 16.3393h8.598l-11.7327-16.4286c5.9111-.2679 10.7475-5.2679 10.7475-11.25z" fill="#000000fff"/><path d="m113.008 54.9643c0 7.2321-5.105 11.9643-12.897 11.9643h-10.1202v14.9107h-4.8364v-38.8393h14.9566c7.792 0 12.897 4.6429 12.897 11.9643zm-13.3444 7.5c5.1054 0 8.4184-2.9464 8.4184-7.5893s-3.224-7.4107-8.3289-7.4107h-9.7623v15.0893h9.6728z" fill="#000000fff"/><path d="m114.262 73.9821c0-5.625 3.941-8.8393 11.464-8.8393h8.33v-1.9642c0-3.6608-2.598-5.8929-7.076-5.8929-4.03 0-6.717 1.875-7.254 4.7321h-4.568c.627-5.5357 5.195-8.8392 12.001-8.8392 7.255 0 11.464 3.5714 11.464 10.1785v18.4822h-3.94l-.359-4.4643c-1.791 2.5893-4.657 4.7321-9.493 4.7321-6.359.0893-10.569-3.0357-10.569-8.125zm10.837 4.375c5.643 0 8.957-3.3035 8.957-8.0357v-1.4286h-8.777c-4.031 0-6.359 1.5179-6.359 4.7322 0 2.8571 2.418 4.7321 6.179 4.7321z" fill="#000000fff"/><path d="m145.878 53.5357 8.777 22.5893 8.509-22.5893h4.836l-13.076 33.125c-1.791 4.5536-2.866 6.3393-6.896 6.3393h-5.464v-4.1964h4.031c2.597 0 3.045-.625 4.119-3.3036l1.433-3.4822-11.105-28.4821z" fill="#000000fff"/></g></svg>